<svg width="24" height="24" viewBox="0 0 24 24" fill="none"
    xmlns="http://www.w3.org/2000/svg">
    <path fill-rule="evenodd" clip-rule="evenodd" d="M21.6509 6.01048C19.6754 4.17448 16.0717 2.24998 13.9574 1.20523C13.3487 0.906213 12.6796 0.750732 12.0014 0.750732C11.3233 0.750732 10.6541 0.906213 10.0454 1.20523C7.92818 2.24998 4.32443 4.17448 2.34893 6.01048C1.33193 6.95623 0.749931 7.92823 0.749931 8.74723V17.1517C0.737745 18.7558 1.36284 20.2991 2.48788 21.4426C3.61292 22.586 5.14587 23.2361 6.74993 23.25H17.2499C18.854 23.2361 20.3869 22.586 21.512 21.4426C22.637 20.2991 23.2621 18.7558 23.2499 17.1517V8.74723C23.2499 7.92823 22.6679 6.95623 21.6509 6.01048ZM14.2499 21.75H9.74993V16.875C9.7035 16.2293 9.9138 15.5913 10.3351 15.0998C10.7564 14.6082 11.3547 14.3029 11.9999 14.25C12.6452 14.3029 13.2434 14.6082 13.6648 15.0998C14.0861 15.5913 14.2964 16.2293 14.2499 16.875V21.75ZM21.7499 17.1517C21.7623 18.358 21.2953 19.5199 20.4516 20.3821C19.6078 21.2444 18.4562 21.7363 17.2499 21.75H15.7499V16.875C15.796 15.8316 15.4276 14.8124 14.7251 14.0396C14.0226 13.2668 13.043 12.8032 11.9999 12.75C10.9569 12.8032 9.97727 13.2668 9.27474 14.0396C8.57221 14.8124 8.20382 15.8316 8.24993 16.875V21.75H6.74993C5.54363 21.7363 4.39208 21.2444 3.5483 20.3821C2.70452 19.5199 2.23753 18.358 2.24993 17.1517V8.74723C2.27098 8.51155 2.35777 8.28651 2.50043 8.09773C2.74933 7.73421 3.04147 7.40228 3.37043 7.10923C5.24993 5.36098 8.69168 3.54373 10.7047 2.54998C11.1078 2.35198 11.5509 2.24902 11.9999 2.24902C12.449 2.24902 12.8921 2.35198 13.2952 2.54998C15.3082 3.54373 18.7499 5.36098 20.6294 7.10923C20.9586 7.4023 21.2508 7.73452 21.4994 8.09848C21.6421 8.28699 21.7289 8.51178 21.7499 8.74723V17.1517Z" fill="black"/>
</svg>
